inDegrees=no
num_controls=7
num_derivatives=13
num_iterations=105
num_multipliers=7
num_parameters=0
num_slacks=7
num_states=26
objective=0.445693
objective_accelerations=0.057500
objective_balance=0.003528
objective_effort=0.022899
objective_height=0.356226
objective_ligament=0.005540
solver_duration=1497.866927
status=Solve_Succeeded
success=true
DataType=double
version=3
OpenSimVersion=4.5
endheader
time	/jointset/ground_pelvis/pelvis_tilt/value	/jointset/ground_pelvis/pelvis_tx/value	/jointset/ground_pelvis/pelvis_ty/value	/jointset/hip_l/hip_flexion_l/value	/jointset/hip_l/hip_adduction_l/value	/jointset/hip_l/hip_rotation_l/value	/jointset/back/lumbar_extension/value	/jointset/patellofemoral_l/patellar_flexion_l/value	/jointset/knee_l/knee_flexion_l/value	/jointset/knee_l/knee_adduction_l/value	/jointset/knee_l/knee_rotation_l/value	/jointset/ankle_l/ankle_angle_l/value	/jointset/subtalar_l/subtalar_angle_l/value	/jointset/ground_pelvis/pelvis_tilt/speed	/jointset/ground_pelvis/pelvis_tx/speed	/jointset/ground_pelvis/pelvis_ty/speed	/jointset/hip_l/hip_flexion_l/speed	/jointset/hip_l/hip_adduction_l/speed	/jointset/hip_l/hip_rotation_l/speed	/jointset/back/lumbar_extension/speed	/jointset/patellofemoral_l/patellar_flexion_l/speed	/jointset/knee_l/knee_flexion_l/speed	/jointset/knee_l/knee_adduction_l/speed	/jointset/knee_l/knee_rotation_l/speed	/jointset/ankle_l/ankle_angle_l/speed	/jointset/subtalar_l/subtalar_angle_l/speed	/forceset/tau_hip_flexion_l	/forceset/tau_hip_adduction_l	/forceset/tau_hip_rotation_l	/forceset/tau_knee_flexion_l	/forceset/tau_ankle_angle_l	/forceset/tau_subtalar_angle_l	/forceset/tau_lumbar_extension	lambda_cid13_p0	lambda_cid13_p1	lambda_cid13_p2	lambda_cid13_p3	lambda_cid13_p4	lambda_cid13_p5	lambda_cid14_p0	/jointset/ground_pelvis/pelvis_tilt/accel	/jointset/ground_pelvis/pelvis_tx/accel	/jointset/ground_pelvis/pelvis_ty/accel	/jointset/hip_l/hip_flexion_l/accel	/jointset/hip_l/hip_adduction_l/accel	/jointset/hip_l/hip_rotation_l/accel	/jointset/back/lumbar_extension/accel	/jointset/patellofemoral_l/patellar_flexion_l/accel	/jointset/knee_l/knee_flexion_l/accel	/jointset/knee_l/knee_adduction_l/accel	/jointset/knee_l/knee_rotation_l/accel	/jointset/ankle_l/ankle_angle_l/accel	/jointset/subtalar_l/subtalar_angle_l/accel	gamma_cid13_p0	gamma_cid13_p1	gamma_cid13_p2	gamma_cid13_p3	gamma_cid13_p4	gamma_cid13_p5	gamma_cid14_p0
1	-0.5475998393328916	-0.07992847052945336	0.5742313535108426	1.832848354355337	-0.4680372965579234	0.01354089544252519	-0.2617771458012379	1.386780221922949	1.386780221922949	-0.08352637841791126	-0.1745245693186407	0.2233963960576866	-0.008959221721040947	-0.01669221382321625	0.01108647382255185	0.002877387500747854	-0.003314416873981488	-0.002015308174680365	0.0005358554105659567	7.653561453362398e-05	0.001397027972031289	0.0013970279720313	-0.001847444846355485	-1.287529935747021e-06	0.02149478953521464	0.01005568715434343	-0.333292109780099	0.01332143699456789	0.0001609555938497875	-0.3035515503548015	0.03340028857116938	0.03218154718532009	0.2845519286255984	-29.13708709182932	-9.674031005081176	2.119355461877755	8.06520934163108	-642.5715813628613	-49.35255017912622	-1.369737745797651	1.526714720179031	0.2319900153693908	1.965458764832055	-6.806172212749205	-0.08230953687837675	-2.369201044307706	-0.02162726571675391	-5.311756555371805	-5.311756555371792	-0.5892575389978348	-0.04806581037504446	-0.7152250172475616	-0.4897317041602858	4.439964650231606e-09	1.778557868930006e-08	-1.475341098338266e-08	1.63467611810683e-09	-1.268754394369058e-09	2.76395234722521e-08	1.670099189818493e-09
1.01	-0.5476912781079388	-0.07980604425496207	0.5743582477313184	1.832476160627549	-0.4680604365191914	0.0134267478306122	-0.2617764501979177	1.386528805600655	1.386528805600655	-0.08357145901831486	-0.1745254863658263	0.2235758323080105	-0.008881538852728769	-0.00158694305263968	0.0134027438677683	0.02249702979483991	-0.07112019367493118	-0.002598580932817057	-0.02334569978903108	6.295003327675232e-05	-0.05167102461220303	-0.05167102461220238	-0.007163955406308586	-0.0001597479163772765	0.01439429249407416	0.005499504471074407	-0.3332696547987865	0.01343221594629331	0.0001447870621801994	-0.3033121829378836	0.03315563819373574	0.03222925907254982	0.2845432614642781	-29.20078354097063	-9.689096366522813	2.128036040231691	7.99776145324447	-642.4283977407406	-49.3779774450505	-1.374739559430431	1.503721815767356	0.2320407319998254	1.959550895590005	-6.767161532140154	-0.04422231972848537	-2.394686165881531	0.008830543233136022	-5.302937630413206	-5.302937630413199	-0.5021423203469848	0.003628637437816117	-0.7071861026385559	-0.4357750190387399	-1.622788405836854e-09	1.516923136275188e-08	3.111835203024881e-08	4.046104973290177e-09	-1.014125934362051e-08	7.685775748551392e-08	-8.926673731406251e-09
1.02	-0.5476314064632263	-0.07966033623343823	0.5746812051615133	1.831426032908077	-0.4680889864429302	0.01307437398508408	-0.2617758795008973	1.385746987148426	1.385746987148426	-0.08366956362548857	-0.1745273150588327	0.2236843187769046	-0.008848860504974989	0.01356987012875245	0.01574282322906657	0.04209002944462044	-0.1389012152107733	-0.003097300668840543	-0.04710939131246139	5.15543545514369e-05	-0.1046833980149982	-0.1046833980149981	-0.01245224620037919	-0.0001836166941578758	0.007304833249283052	0.001054783042664198	-0.3332471998174742	0.01354299489801871	0.0001286185305106259	-0.3030728155209658	0.0329109878163021	0.03227697095977954	0.2845345943029577	-29.27050032863027	-9.702968700659209	2.136367773550402	7.954302092095262	-642.3688925933392	-49.38133018967145	-1.390117752670794	1.537023202342144	0.2367518785857544	1.960130235969748	-6.801221159727691	-0.06539893245573498	-2.345628309074361	-0.02118928521044272	-5.300620719084189	-5.300620719084193	-0.5836135858213364	-0.02114748864285845	-0.7130174579776872	-0.4674394531885226	-1.042539044250363e-08	4.518136556986408e-09	7.074968831609435e-08	4.676602384876603e-09	-2.049451453079162e-08	1.23857465055905e-07	-2.098675360516769e-08
1.03	-0.5474197451208759	-0.07949109438179162	0.5751998876424514	1.829698418143494	-0.4681220478209344	0.01248488912770941	-0.2617754213270076	1.384435342425805	1.384435342425805	-0.08382030027954625	-0.1745287557750021	0.2237218299633755	-0.008860077363848584	0.02876707688478636	0.01811085790073262	0.06163490717895804	-0.2065974032913797	-0.00349458189064698	-0.07077421517130578	3.981459058517948e-05	-0.1576344966286917	-0.1576344966286914	-0.01767779173335266	-8.511783664987523e-05	0.0001860187076580289	-0.003278662605203967	-0.3328576685721665	0.0137436461865814	7.826254756589396e-05	-0.3027671360908115	0.03283288383186019	0.03234227714745143	0.2842631860724484	-29.26823073370045	-9.742078575806548	2.15442513944552	7.843245820188217	-642.0060614437984	-49.41088963028523	-1.416065063663162	1.511767687096073	0.2376269430252501	1.949926372144202	-6.750171580430737	-0.02384337030077624	-2.374925031412195	0.008793803089333207	-5.290690264914287	-5.290690264914255	-0.4894431712771885	0.02828796590555347	-0.7130210255455489	-0.4133852746717754	-1.925595012182959e-08	-6.214945467954795e-09	1.103173467781869e-07	5.288927026630397e-09	-3.086287941426804e-08	1.708345346013689e-07	-3.306176518252645e-08
